<svg width="80" height="71" viewBox="0 0 80 71" fill="none" xmlns="http://www.w3.org/2000/svg">
<mask id="mask0_16_201" style="mask-type:luminance" maskUnits="userSpaceOnUse" x="0" y="0" width="80" height="71">
<path d="M79.8 0H0V70.4118H79.8V0Z" fill="white"/>
</mask>
<g mask="url(#mask0_16_201)">
<path d="M17.7735 48.9827C15.5281 48.9827 13.4869 47.1459 13.4869 44.9009C13.4869 42.656 15.324 40.8192 17.7735 40.8192C20.223 40.8192 22.0602 42.656 22.0602 44.9009C22.0602 47.1459 20.0189 48.9827 17.7735 48.9827ZM70.4381 26.7368C70.0297 23.4713 67.9884 20.818 65.3349 18.7771L64.3141 17.9607L63.4978 18.9812C61.8647 20.818 61.2524 24.0834 61.4563 26.5326C61.6605 28.3694 62.2729 30.2062 63.2936 31.6349C62.4771 32.043 61.4563 32.4512 60.64 32.8593C58.8027 33.4717 56.9657 33.6759 55.1284 33.6759H2.25995L2.05582 34.9003C1.64758 38.7781 2.25995 42.8599 3.89296 46.5335L4.70946 47.9622V48.1664C9.60849 56.3299 18.3859 60.0038 27.9798 60.0038C46.3511 60.0038 61.4563 52.0442 68.6008 34.9003C73.2958 35.1045 77.9907 33.8798 80.2361 29.3899L80.8484 28.3694L79.8277 27.7571C77.1741 26.1245 73.4998 25.9203 70.4381 26.7368ZM44.1057 23.4713H36.145V31.4309H44.1057V23.4713ZM44.1057 13.4707H36.145V21.4303H44.1057V13.4707ZM44.1057 3.26611H36.145V11.2257H44.1057V3.26611ZM53.9037 23.4713H45.943V31.4309H53.9037V23.4713ZM24.3054 23.4713H16.3446V31.4309H24.3054V23.4713ZM34.3077 23.4713H26.3467V31.4309H34.3077V23.4713ZM14.5075 23.4713H6.54659V31.4309H14.5075V23.4713ZM34.3077 13.4707H26.3467V21.4303H34.3077V13.4707ZM24.3054 13.4707H16.3446V21.4303H24.3054V13.4707Z" fill="white"/>
<mask id="mask1_16_201" style="mask-type:luminance" maskUnits="userSpaceOnUse" x="1" y="3" width="80" height="58">
<path d="M17.7735 48.9827C15.5281 48.9827 13.4869 47.1459 13.4869 44.9009C13.4869 42.656 15.324 40.8192 17.7735 40.8192C20.223 40.8192 22.0602 42.656 22.0602 44.9009C22.0602 47.1459 20.0189 48.9827 17.7735 48.9827ZM70.4381 26.7368C70.0297 23.4713 67.9884 20.818 65.3349 18.7771L64.3141 17.9607L63.4978 18.9812C61.8647 20.818 61.2524 24.0834 61.4563 26.5326C61.6605 28.3694 62.2729 30.2062 63.2936 31.6349C62.4771 32.043 61.4563 32.4512 60.64 32.8593C58.8027 33.4717 56.9657 33.6759 55.1284 33.6759H2.25995L2.05582 34.9003C1.64758 38.7781 2.25995 42.8599 3.89296 46.5335L4.70946 47.9622V48.1664C9.60849 56.3299 18.3859 60.0038 27.9798 60.0038C46.3511 60.0038 61.4563 52.0442 68.6008 34.9003C73.2958 35.1045 77.9907 33.8798 80.2361 29.3899L80.8484 28.3694L79.8277 27.7571C77.1741 26.1245 73.4998 25.9203 70.4381 26.7368ZM44.1057 23.4713H36.145V31.4309H44.1057V23.4713ZM44.1057 13.4707H36.145V21.4303H44.1057V13.4707ZM44.1057 3.26611H36.145V11.2257H44.1057V3.26611ZM53.9037 23.4713H45.943V31.4309H53.9037V23.4713ZM24.3054 23.4713H16.3446V31.4309H24.3054V23.4713ZM34.3077 23.4713H26.3467V31.4309H34.3077V23.4713ZM14.5075 23.4713H6.54659V31.4309H14.5075V23.4713ZM34.3077 13.4707H26.3467V21.4303H34.3077V13.4707ZM24.3054 13.4707H16.3446V21.4303H24.3054V13.4707Z" fill="white"/>
</mask>
<g mask="url(#mask1_16_201)">
<path d="M-99.5986 -42.8589H2502.6V266.136H-99.5986V-42.8589Z" fill="white"/>
</g>
</g>
</svg>
