<svg width="120" height="70" viewBox="0 0 120 70" fill="none" xmlns="http://www.w3.org/2000/svg">
<mask id="mask0_16_175" style="mask-type:luminance" maskUnits="userSpaceOnUse" x="0" y="0" width="120" height="70">
<path d="M119.404 0H0V70H119.404V0Z" fill="white"/>
</mask>
<g mask="url(#mask0_16_175)">
<path d="M34.0367 25.4227C34.0367 26.8632 34.1923 28.0311 34.4647 28.8877C34.7761 29.7442 35.1652 30.6785 35.71 31.6908C35.9046 32.0022 35.9825 32.3137 35.9825 32.5862C35.9825 32.9755 35.749 33.3648 35.2431 33.7542L32.7914 35.3893C32.4411 35.6229 32.0909 35.7397 31.7796 35.7397C31.3904 35.7397 31.0012 35.545 30.6121 35.1947C30.0673 34.6107 29.6003 33.9878 29.2111 33.3648C28.822 32.703 28.4328 31.9633 28.0047 31.0679C24.9693 34.6496 21.1556 36.4405 16.5635 36.4405C13.2946 36.4405 10.6872 35.5061 8.78039 33.6374C6.87352 31.7686 5.90063 29.277 5.90063 26.1624C5.90063 22.8532 7.06811 20.1669 9.44197 18.1424C11.8158 16.1179 14.968 15.1057 18.9763 15.1057C20.2994 15.1057 21.6615 15.2225 23.1013 15.4171C24.5412 15.6118 26.02 15.9232 27.5767 16.2736V13.4316C27.5767 10.4727 26.954 8.40934 25.7476 7.20245C24.5023 5.99555 22.4009 5.41157 19.4044 5.41157C18.0423 5.41157 16.6413 5.5673 15.2015 5.91769C13.7616 6.26807 12.3606 6.69633 10.9986 7.24138C10.3759 7.5139 9.90895 7.66963 9.63655 7.7475C9.36414 7.82536 9.16955 7.86429 9.0139 7.86429C8.46907 7.86429 8.19666 7.47497 8.19666 6.6574V4.74972C8.19666 4.12681 8.2745 3.65962 8.46908 3.3871C8.66366 3.11457 9.01389 2.84205 9.55871 2.56952C10.9207 1.86874 12.5552 1.28476 14.4621 0.817575C16.3689 0.311457 18.3925 0.0778643 20.5329 0.0778643C25.1639 0.0778643 28.5495 1.12903 30.7288 3.23137C32.8692 5.3337 33.9588 8.52614 33.9588 12.8087V25.4227H34.0367ZM18.2369 31.3404C19.5211 31.3404 20.8442 31.1068 22.2452 30.6396C23.6462 30.1724 24.8915 29.3159 25.9422 28.1479C26.5648 27.4082 27.0318 26.5907 27.2653 25.6563C27.4988 24.7219 27.6545 23.5929 27.6545 22.2692V20.634C26.5259 20.3615 25.3195 20.1279 24.0742 19.9722C22.8289 19.8165 21.6225 19.7386 20.4162 19.7386C17.8088 19.7386 15.9019 20.2447 14.6177 21.2959C13.3335 22.347 12.7108 23.8265 12.7108 25.7731C12.7108 27.6029 13.1778 28.9655 14.1507 29.8999C15.0847 30.8732 16.4468 31.3404 18.2369 31.3404ZM49.4862 35.545C48.7857 35.545 48.3187 35.4282 48.0074 35.1557C47.6961 34.9221 47.4237 34.3771 47.1902 33.6374L38.045 3.54282C37.8115 2.76418 37.6948 2.25806 37.6948 1.98554C37.6948 1.36262 38.0061 1.01224 38.6287 1.01224H42.4425C43.1819 1.01224 43.6878 1.12903 43.9602 1.40156C44.2715 1.63515 44.505 2.1802 44.7385 2.91991L51.2763 28.693L57.3472 2.91991C57.5418 2.14127 57.7753 1.63515 58.0866 1.40156C58.3979 1.16796 58.9427 1.01224 59.6432 1.01224H62.7565C63.4959 1.01224 64.0019 1.12903 64.3131 1.40156C64.6244 1.63515 64.8968 2.1802 65.0525 2.91991L71.2012 29.0044L77.9336 2.91991C78.1671 2.14127 78.4395 1.63515 78.7119 1.40156C79.0233 1.16796 79.5292 1.01224 80.2297 1.01224H83.8488C84.4715 1.01224 84.8217 1.32369 84.8217 1.98554C84.8217 2.1802 84.7828 2.37486 84.7439 2.60845C84.705 2.84205 84.6271 3.1535 84.4715 3.58176L75.0928 33.6763C74.8593 34.4549 74.5869 34.9611 74.2755 35.1947C73.9642 35.4282 73.4583 35.584 72.7967 35.584H69.45C68.7106 35.584 68.2047 35.4672 67.8934 35.1947C67.582 34.9221 67.3096 34.416 67.154 33.6374L61.122 8.52614L55.129 33.5984C54.9344 34.3771 54.7009 34.8832 54.3896 35.1557C54.0783 35.4282 53.5335 35.545 52.833 35.545H49.4862ZM99.4929 36.5962C97.4693 36.5962 95.4457 36.3626 93.4999 35.8954C91.5541 35.4282 90.0364 34.9221 89.0246 34.3382C88.402 33.9878 87.9739 33.5984 87.8182 33.2481C87.6626 32.8977 87.5847 32.5083 87.5847 32.1579V30.1724C87.5847 29.3548 87.8961 28.9655 88.4798 28.9655C88.7133 28.9655 88.9468 29.0044 89.1803 29.0823C89.4138 29.1602 89.764 29.3159 90.1532 29.4716C91.4763 30.0556 92.9162 30.5228 94.4339 30.8343C95.9905 31.1457 97.5082 31.3014 99.0649 31.3014C101.517 31.3014 103.424 30.8732 104.747 30.0167C106.07 29.1602 106.771 27.9143 106.771 26.3181C106.771 25.228 106.42 24.3326 105.72 23.5929C105.019 22.8532 103.696 22.1913 101.789 21.5684L96.1462 19.8165C93.3054 18.921 91.2039 17.5973 89.9197 15.8454C88.6354 14.1324 87.9739 12.2247 87.9739 10.2002C87.9739 8.56507 88.3241 7.12458 89.0246 5.87875C89.7251 4.63293 90.6591 3.54282 91.8265 2.68632C92.994 1.79088 94.3171 1.12903 95.8738 0.661846C97.4305 0.194661 99.0649 0 100.778 0C101.634 0 102.529 0.0389321 103.385 0.155729C104.28 0.272525 105.097 0.428254 105.914 0.583982C106.693 0.778643 107.432 0.973303 108.133 1.2069C108.833 1.44049 109.378 1.67408 109.767 1.90768C110.312 2.21913 110.701 2.53059 110.935 2.88098C111.168 3.19244 111.285 3.62069 111.285 4.16574V5.99555C111.285 6.81312 110.973 7.24138 110.39 7.24138C110.078 7.24138 109.573 7.08565 108.911 6.77419C106.693 5.76196 104.202 5.25584 101.439 5.25584C99.2205 5.25584 97.4693 5.60623 96.2629 6.34594C95.0565 7.08565 94.4339 8.21468 94.4339 9.8109C94.4339 10.901 94.8232 11.8354 95.6014 12.5751C96.3797 13.3148 97.8196 14.0545 99.8816 14.7164L105.409 16.4683C108.21 17.3637 110.234 18.6096 111.44 20.2058C112.647 21.802 113.231 23.6318 113.231 25.6563C113.231 27.3304 112.88 28.8487 112.219 30.1724C111.518 31.4961 110.584 32.6641 109.378 33.5984C108.172 34.5717 106.732 35.2725 105.058 35.7786C103.307 36.3237 101.478 36.5962 99.4929 36.5962Z" fill="white"/>
<path fill-rule="evenodd" clip-rule="evenodd" d="M106.848 55.5171C94.045 64.9776 75.4432 69.9998 59.4489 69.9998C37.0334 69.9998 16.8361 61.7073 1.58111 47.9253C0.374719 46.8352 1.46436 45.3558 2.90424 46.2123C19.4046 55.7896 39.7575 61.5905 60.8109 61.5905C75.0152 61.5905 90.6204 58.6317 104.98 52.5582C107.121 51.5849 108.95 53.9598 106.848 55.5171Z" fill="#FF9900"/>
<path fill-rule="evenodd" clip-rule="evenodd" d="M112.18 49.4438C110.545 47.3415 101.361 48.4316 97.197 48.9377C95.9517 49.0934 95.7571 48.0033 96.8857 47.1857C104.202 42.0467 116.227 43.5261 117.628 45.2391C119.029 46.9911 117.239 59.0211 110.39 64.7831C109.339 65.6785 108.327 65.2113 108.794 64.0434C110.351 60.1891 113.814 51.5072 112.18 49.4438Z" fill="#FF9900"/>
</g>
</svg>
