<svg width="128" height="129" viewBox="0 0 128 129" fill="none" xmlns="http://www.w3.org/2000/svg">
<g filter="url(#filter0_d_16_2224)">
<circle cx="64" cy="60.5" r="52.5" fill="url(#paint0_linear_16_2224)" fill-opacity="0.18"/>
<circle cx="64" cy="60.5" r="60" fill="#4A4A4A" fill-opacity="0.09"/>
<mask id="mask0_16_2224" style="mask-type:luminance" maskUnits="userSpaceOnUse" x="29" y="26" width="68" height="70">
<path d="M97 26H29.5V95.4853H97V26Z" fill="white"/>
</mask>
<g mask="url(#mask0_16_2224)">
<path d="M62.6013 27.9051C59.8385 27.9177 57.2001 28.1523 54.8791 28.5615C48.0405 29.7643 46.7988 32.2811 46.7988 36.9234V43.0541H62.9593V45.0975H40.7335C36.037 45.0975 31.9239 47.9076 30.6377 53.2531C29.1538 59.3803 29.0881 63.2036 30.6377 69.6014C31.7865 74.3636 34.5302 77.7569 39.2267 77.7569H44.7833V70.4076C44.7833 65.0982 49.3984 60.4152 54.8791 60.4152H71.0209C75.5143 60.4152 79.1011 56.7327 79.1011 52.2409V36.9228C79.1011 32.5636 75.4063 29.2886 71.0209 28.5609C68.2441 28.1013 65.3641 27.8919 62.6013 27.9051ZM53.8617 32.8354C55.5313 32.8354 56.8941 34.2147 56.8941 35.9101C56.8941 37.5995 55.5306 38.9662 53.8617 38.9662C52.1867 38.9662 50.8293 37.6001 50.8293 35.9101C50.8293 34.2147 52.1867 32.8354 53.8617 32.8354Z" fill="url(#paint1_linear_16_2224)"/>
<path d="M81.1167 45.0968V52.2397C81.1167 57.7776 76.3997 62.4385 71.0208 62.4385H54.879C50.4575 62.4385 46.7989 66.205 46.7989 70.6127V85.9296C46.7989 90.2893 50.607 92.8536 54.879 94.1039C59.9946 95.6013 64.9002 95.8718 71.0208 94.1039C75.0895 92.9316 79.1013 90.5715 79.1013 85.9296V79.7996H62.9595V77.7561H87.1815C91.8786 77.7561 93.6282 74.4949 95.2617 69.6006C96.9492 64.5624 96.8775 59.716 95.2617 53.2523C94.1007 48.5986 91.8839 45.0968 87.1815 45.0968H81.1167ZM72.0378 83.8863C73.7127 83.8863 75.0701 85.2524 75.0701 86.9425C75.0701 88.6377 73.7127 90.017 72.0378 90.017C70.3682 90.017 69.0054 88.6377 69.0054 86.9425C69.0054 85.2531 70.3689 83.8863 72.0378 83.8863Z" fill="url(#paint2_linear_16_2224)"/>
</g>
</g>
<defs>
<filter id="filter0_d_16_2224" x="0" y="0.5" width="128" height="128" filterUnits="userSpaceOnUse" color-interpolation-filters="sRGB">
<feFlood flood-opacity="0" result="BackgroundImageFix"/>
<feColorMatrix in="SourceAlpha" type="matrix" values="0 0 0 0 0 0 0 0 0 0 0 0 0 0 0 0 0 0 127 0" result="hardAlpha"/>
<feOffset dy="4"/>
<feGaussianBlur stdDeviation="2"/>
<feComposite in2="hardAlpha" operator="out"/>
<feColorMatrix type="matrix" values="0 0 0 0 0 0 0 0 0 0 0 0 0 0 0 0 0 0 0.25 0"/>
<feBlend mode="normal" in2="BackgroundImageFix" result="effect1_dropShadow_16_2224"/>
<feBlend mode="normal" in="SourceGraphic" in2="effect1_dropShadow_16_2224" result="shape"/>
</filter>
<linearGradient id="paint0_linear_16_2224" x1="64" y1="8" x2="64" y2="113" gradientUnits="userSpaceOnUse">
<stop stop-color="#EBEBEB"/>
<stop offset="1" stop-color="#4A4A4A" stop-opacity="0.54"/>
</linearGradient>
<linearGradient id="paint1_linear_16_2224" x1="27.9061" y1="29.8195" x2="65.0263" y2="61.5945" gradientUnits="userSpaceOnUse">
<stop stop-color="#5A9FD4"/>
<stop offset="1" stop-color="#306998"/>
</linearGradient>
<linearGradient id="paint2_linear_16_2224" x1="79.1555" y1="81.1259" x2="65.8675" y2="62.4205" gradientUnits="userSpaceOnUse">
<stop stop-color="#FFD43B"/>
<stop offset="1" stop-color="#FFE873"/>
</linearGradient>
</defs>
</svg>
