<svg width="106" height="106" viewBox="0 0 106 106" fill="none" xmlns="http://www.w3.org/2000/svg">
<circle cx="53" cy="49" r="42.875" fill="#4A4A4A" fill-opacity="0.18"/>
<g filter="url(#filter0_d_16_2233)">
<circle cx="53" cy="49" r="49" fill="url(#paint0_linear_16_2233)" fill-opacity="0.21" shape-rendering="crispEdges"/>
</g>
<mask id="mask0_16_2233" style="mask-type:luminance" maskUnits="userSpaceOnUse" x="26" y="18" width="54" height="62">
<path d="M79.4808 18.375H26.0499V79.625H79.4808V18.375Z" fill="white"/>
</mask>
<g mask="url(#mask0_16_2233)">
<path d="M79.4806 49.0055C79.4806 45.4446 75.0481 42.07 68.2521 39.9773C69.8204 33.0089 69.1234 27.4649 66.0521 25.6899C65.3442 25.2735 64.5165 25.0763 63.6126 25.0763V27.5196C64.1135 27.5196 64.5166 27.6183 64.8541 27.8045C66.3353 28.6592 66.9779 31.9132 66.4769 36.0987C66.3571 37.1285 66.161 38.2133 65.9215 39.3199C63.7868 38.7939 61.4562 38.3885 59.0057 38.1256C57.5355 36.0987 56.0107 34.2579 54.4751 32.6473C58.0256 29.3275 61.3582 27.5087 63.6235 27.5087V25.0654C60.6285 25.0654 56.7077 27.2129 52.7434 30.9381C48.7792 27.2347 44.8584 25.1092 41.8634 25.1092V27.5525C44.1179 27.5525 47.4613 29.3604 51.0118 32.6583C49.487 34.2689 47.9624 36.0987 46.5139 38.1256C44.0525 38.3885 41.7219 38.7939 39.5872 39.3308C39.3367 38.2352 39.1515 37.1724 39.0209 36.1534C38.509 31.9681 39.1407 28.7139 40.611 27.8484C40.9377 27.6512 41.3624 27.5635 41.8634 27.5635V25.1202C40.9486 25.1202 40.1209 25.3174 39.4021 25.7337C36.3417 27.5087 35.6556 33.0418 37.2348 39.9882C30.4606 42.0919 26.0498 45.4556 26.0498 49.0055C26.0498 52.5664 30.4824 55.941 37.2783 58.0337C35.7101 65.0021 36.4071 70.5461 39.4783 72.3211C40.1862 72.7375 41.0139 72.9347 41.9288 72.9347C44.9237 72.9347 48.8445 70.7872 52.8088 67.0619C56.7731 70.7653 60.6938 72.8908 63.6888 72.8908C64.6036 72.8908 65.4314 72.6936 66.1502 72.2773C69.2105 70.5024 69.8967 64.9692 68.3175 58.0228C75.0699 55.9301 79.4806 52.5554 79.4806 49.0055ZM65.3007 41.6974C64.8977 43.1108 64.3967 44.5681 63.8304 46.0253C63.3839 45.1488 62.9156 44.2722 62.4037 43.3957C61.9027 42.5192 61.369 41.6646 60.8354 40.8319C62.3819 41.062 63.874 41.3468 65.3007 41.6974ZM60.3126 53.3662C59.4632 54.8454 58.5919 56.2478 57.6879 57.5517C56.0652 57.6941 54.4206 57.7708 52.7652 57.7708C51.1207 57.7708 49.4762 57.6941 47.8644 57.5626C46.9604 56.2588 46.0782 54.8672 45.2287 53.3991C44.401 51.9638 43.6496 50.5066 42.9634 49.0383C43.6386 47.5702 44.401 46.102 45.2178 44.6667C46.0673 43.1876 46.9386 41.7851 47.8426 40.4813C49.4653 40.3388 51.1098 40.2622 52.7652 40.2622C54.4098 40.2622 56.0543 40.3388 57.6661 40.4703C58.5701 41.7742 59.4522 43.1656 60.3018 44.6339C61.1294 46.0691 61.8809 47.5263 62.5671 48.9945C61.8809 50.4628 61.1294 51.9309 60.3126 53.3662ZM63.8304 51.9419C64.4185 53.41 64.9195 54.8783 65.3334 56.3026C63.9066 56.6532 62.4037 56.949 60.8463 57.1791C61.38 56.3355 61.9136 55.4699 62.4146 54.5824C62.9156 53.7059 63.3839 52.8184 63.8304 51.9419ZM52.787 63.6326C51.7741 62.5807 50.7613 61.4084 49.7593 60.1264C50.7395 60.1703 51.7415 60.2032 52.7543 60.2032C53.778 60.2032 54.7909 60.1812 55.7821 60.1264C54.8018 61.4084 53.789 62.5807 52.787 63.6326ZM44.6842 57.1791C43.1377 56.949 41.6456 56.6641 40.2189 56.3135C40.6218 54.9001 41.1228 53.4429 41.6891 51.9857C42.1356 52.8622 42.604 53.7388 43.1159 54.6152C43.6278 55.4918 44.1505 56.3464 44.6842 57.1791ZM52.7326 34.3785C53.7454 35.4303 54.7583 36.6027 55.7603 37.8845C54.78 37.8407 53.778 37.8079 52.7652 37.8079C51.7415 37.8079 50.7287 37.8298 49.7376 37.8845C50.7177 36.6027 51.7306 35.4303 52.7326 34.3785ZM44.6733 40.8319C44.1397 41.6756 43.606 42.5411 43.105 43.4286C42.604 44.3051 42.1356 45.1817 41.6891 46.0582C41.101 44.59 40.6001 43.1219 40.1862 41.6974C41.6129 41.3578 43.1159 41.062 44.6733 40.8319ZM34.817 54.5495C30.9616 52.8951 28.4676 50.7257 28.4676 49.0055C28.4676 47.2853 30.9616 45.105 34.817 43.4614C35.7536 43.0561 36.7773 42.6945 37.8338 42.3548C38.4545 44.5023 39.2714 46.7375 40.2842 49.0274C39.2823 51.3064 38.4763 53.5306 37.8664 55.6671C36.7883 55.3275 35.7645 54.9549 34.817 54.5495ZM40.6763 70.2065C39.1951 69.3519 38.5526 66.0978 39.0535 61.9124C39.1733 60.8824 39.3694 59.7978 39.609 58.6912C41.7436 59.217 44.0743 59.6224 46.5247 59.8854C47.995 61.9124 49.5198 63.753 51.0554 65.3637C47.5049 68.6835 44.1723 70.5024 41.907 70.5024C41.4169 70.4913 41.003 70.3927 40.6763 70.2065ZM66.5096 61.8576C67.0214 66.043 66.3898 69.2971 64.9195 70.1627C64.5928 70.3599 64.1681 70.4476 63.667 70.4476C61.4126 70.4476 58.0691 68.6397 54.5186 65.3418C56.0434 63.7312 57.5681 61.9014 59.0166 59.8744C61.478 59.6115 63.8086 59.2061 65.9433 58.6692C66.1938 59.7758 66.3898 60.8386 66.5096 61.8576ZM70.7026 54.5495C69.766 54.9549 68.7422 55.3165 67.6858 55.6561C67.065 53.5086 66.2482 51.2735 65.2353 48.9836C66.2373 46.7046 67.0432 44.4805 67.6531 42.3439C68.7314 42.6836 69.755 43.0561 70.7135 43.4614C74.5688 45.1159 77.0628 47.2853 77.0628 49.0055C77.052 50.7257 74.558 52.906 70.7026 54.5495Z" fill="#61DAFB"/>
<path d="M52.7541 54.0126C55.5029 54.0126 57.7312 51.7709 57.7312 49.0055C57.7312 46.2401 55.5029 43.9984 52.7541 43.9984C50.0053 43.9984 47.777 46.2401 47.777 49.0055C47.777 51.7709 50.0053 54.0126 52.7541 54.0126Z" fill="#61DAFB"/>
</g>
<defs>
<filter id="filter0_d_16_2233" x="0" y="0" width="106" height="106" filterUnits="userSpaceOnUse" color-interpolation-filters="sRGB">
<feFlood flood-opacity="0" result="BackgroundImageFix"/>
<feColorMatrix in="SourceAlpha" type="matrix" values="0 0 0 0 0 0 0 0 0 0 0 0 0 0 0 0 0 0 127 0" result="hardAlpha"/>
<feOffset dy="4"/>
<feGaussianBlur stdDeviation="2"/>
<feComposite in2="hardAlpha" operator="out"/>
<feColorMatrix type="matrix" values="0 0 0 0 0 0 0 0 0 0 0 0 0 0 0 0 0 0 0.25 0"/>
<feBlend mode="normal" in2="BackgroundImageFix" result="effect1_dropShadow_16_2233"/>
<feBlend mode="normal" in="SourceGraphic" in2="effect1_dropShadow_16_2233" result="shape"/>
</filter>
<linearGradient id="paint0_linear_16_2233" x1="53" y1="0" x2="53" y2="98" gradientUnits="userSpaceOnUse">
<stop stop-color="#D1CECE"/>
<stop offset="1" stop-color="#4A4A4A" stop-opacity="0"/>
</linearGradient>
</defs>
</svg>
