<svg width="111" height="110" viewBox="0 0 111 110" fill="none" xmlns="http://www.w3.org/2000/svg">
<mask id="mask0_16_2242" style="mask-type:luminance" maskUnits="userSpaceOnUse" x="22" y="17" width="67" height="68">
<path d="M88.6498 17.8499H22.3499V84.1498H88.6498V17.8499Z" fill="white"/>
</mask>
<g mask="url(#mask0_16_2242)">
<path d="M55.4999 84.1498C73.8081 84.1498 88.6498 69.3081 88.6498 50.9999C88.6498 32.6916 73.8081 17.8499 55.4999 17.8499C37.1916 17.8499 22.3499 32.6916 22.3499 50.9999C22.3499 69.3081 37.1916 84.1498 55.4999 84.1498Z" fill="#05998B"/>
<path d="M57.3833 25.8866L40.7007 56.023H55.7151L54.0468 76.1136L70.7294 45.9772H55.7151L57.3833 25.8866Z" fill="#EEF2F6"/>
</g>
<circle cx="55.5" cy="51" r="44.625" fill="#4A4A4A" fill-opacity="0.18"/>
<g filter="url(#filter0_d_16_2242)">
<circle cx="55.5" cy="51" r="51" fill="url(#paint0_linear_16_2242)" fill-opacity="0.21" shape-rendering="crispEdges"/>
</g>
<defs>
<filter id="filter0_d_16_2242" x="0.5" y="0" width="110" height="110" filterUnits="userSpaceOnUse" color-interpolation-filters="sRGB">
<feFlood flood-opacity="0" result="BackgroundImageFix"/>
<feColorMatrix in="SourceAlpha" type="matrix" values="0 0 0 0 0 0 0 0 0 0 0 0 0 0 0 0 0 0 127 0" result="hardAlpha"/>
<feOffset dy="4"/>
<feGaussianBlur stdDeviation="2"/>
<feComposite in2="hardAlpha" operator="out"/>
<feColorMatrix type="matrix" values="0 0 0 0 0 0 0 0 0 0 0 0 0 0 0 0 0 0 0.25 0"/>
<feBlend mode="normal" in2="BackgroundImageFix" result="effect1_dropShadow_16_2242"/>
<feBlend mode="normal" in="SourceGraphic" in2="effect1_dropShadow_16_2242" result="shape"/>
</filter>
<linearGradient id="paint0_linear_16_2242" x1="55.5" y1="0" x2="55.5" y2="102" gradientUnits="userSpaceOnUse">
<stop stop-color="#B0B0B0"/>
<stop offset="1" stop-color="#4A4A4A" stop-opacity="0"/>
</linearGradient>
</defs>
</svg>
