<svg width="1219" height="604" viewBox="0 0 1219 604" fill="none" xmlns="http://www.w3.org/2000/svg">
<path d="M927.714 36.4186C935.797 38.0598 943.573 38.7737 944.864 50.3355C945.52 56.2243 953.466 56.8267 959.331 56.9856C969.851 57.2726 972.602 58.9731 971.976 68.353C971.471 75.9281 973.919 78.1693 981 78.7931C990.326 79.6136 999.063 82.2723 1008.88 78.4989C1017.71 75.1051 1022.76 79.5852 1026.95 90.2221C1027.84 92.4752 1029.12 95.48 1031.75 93.8554C1043.75 86.4511 1058.08 92.219 1070.94 85.6851C1079.48 81.3449 1091.65 83.3111 1100.21 91.5455C1104.36 95.5275 1109.27 97.4414 1114.42 93.9408C1119.87 90.2292 1124.38 93.6444 1127.19 96.5307C1136.1 105.697 1146.17 102.972 1156.39 101.023C1157.76 100.762 1159.09 100.268 1160.43 99.8842C1165.98 98.2928 1160.78 111.04 1167 105.607C1170.3 102.728 1172.61 102.125 1176.34 101.672C1193.34 99.6067 1205.87 109.248 1218.91 117.793L1212.67 132.438C1212.22 132.323 1211.77 132.218 1211.31 132.122C1207.62 131.351 1204.24 124.881 1203.13 126.651C1200.82 130.303 1196.19 133.427 1196.79 138.535C1197.56 145.09 1194.32 146.639 1188.51 146.917C1183.34 147.163 1178.06 148.079 1174.06 152.165C1170.8 155.497 1166.93 155.564 1162.31 155.386C1150.36 154.926 1143.93 160.599 1142.43 172.711C1140.9 185.133 1129.3 189.592 1123.16 198.341C1121.18 201.168 1119.4 197.504 1118.34 195.619C1113.47 186.99 1116.49 178.969 1120.83 171.399C1122.93 167.737 1126.31 164.825 1128.97 161.464C1130.59 159.427 1134.8 158.118 1132.88 154.949C1131.19 152.146 1127.29 151.385 1123.91 151.473C1119.69 151.584 1116.84 154.477 1114.89 157.762C1111.5 163.487 1107.51 162.645 1101.64 161.592C1086.33 158.848 1070.48 157.243 1059.82 172.606C1056.99 176.674 1048.26 177.267 1050.92 183.872C1053.43 190.088 1061.15 185.975 1066.38 187.586C1070.24 188.774 1075.45 187.441 1075.62 192.642C1075.81 198.249 1081.51 204.524 1075.15 209.519C1073.17 211.07 1071.39 212.014 1071.12 214.653C1070.99 215.984 1071.03 217.997 1069.4 217.993C1067.86 217.988 1068.03 216.001 1067.87 214.722C1067.76 213.778 1067.84 212.813 1067.73 211.867C1067.43 209.213 1068.6 206.334 1066.53 203.945C1065.82 206.633 1065.57 209.573 1064.3 211.966C1058.23 223.391 1051.77 234.182 1037.59 237.621C1024.6 240.77 1023.31 243.429 1026.44 256.544C1027.58 261.325 1027.6 265.397 1022.47 267.088C1017.52 268.723 1015.97 264.119 1014.26 260.932C1012.94 258.475 1012.2 255.586 1011.78 252.804C1011.15 248.729 1008.88 248.362 1005.71 249.529C1003.24 250.437 1000.61 253.515 998.359 249.868C996.803 247.352 995.811 245.687 993.565 248.843C992.221 250.734 990.103 253.062 990.366 254.903C990.938 258.906 993.907 255.667 995.838 255.854C1001.36 256.395 1006.56 257.052 999.305 263.557C996.015 266.507 997 270.368 997.754 274.22C1001.61 293.891 993.174 308.422 974.505 315.091C969.839 316.758 964.012 316.473 961.999 323.05C960.716 327.241 958.799 326.885 956.935 322.69C954.682 317.617 951.31 320.863 948.781 322.633C945.35 325.038 945.293 328.05 948.478 330.936C949.891 332.217 951.405 333.398 952.726 334.766C961.74 344.099 958.567 357.164 946.301 362.038C942.919 363.382 942.399 361.073 941.045 359.151C937.362 353.927 931.006 347.76 926.277 352.039C920.175 357.56 926.628 364.118 931.483 368.764C935.054 372.181 939.259 376.296 938.353 380.736C936.278 390.891 945.274 397.067 945.845 406.063C946.104 410.118 950.01 410.725 953.262 411.627C962.798 414.271 971.677 419.735 982.217 418.092C984.029 417.81 986.692 418.538 986.825 420.487C987.015 423.253 984.143 422.456 982.464 422.607C970.442 423.687 958.135 421.661 947.323 418.206C938.987 415.542 931.933 405.954 926.516 397.952C922.017 391.288 917.085 384.926 911.75 378.91C910.19 377.152 907.273 376.042 909.158 373.384C911.286 370.386 914.39 371.565 916.596 373.507C919.797 376.327 922.591 379.609 925.596 382.657C926.592 383.667 928.018 384.772 929.222 383.755C930.636 382.564 929.123 381.27 928.383 380.235C920.559 369.288 917.625 357.143 918.699 343.759C919.1 338.769 918.284 333.775 910.88 335.373C904.51 336.749 904.678 330.67 902.465 327.54C893.18 314.401 889.732 314.064 877.805 324.715C875.066 327.16 872.063 329.311 869.068 331.436C858.765 338.748 856.05 349.579 861.343 361.604C862.427 364.068 865.083 366.795 862.15 369.29C859.446 371.591 857.167 368.681 854.591 367.801C842.704 363.738 838.227 353.834 836.593 343.178C834.157 327.305 822.208 318.129 813.668 306.501C811.477 303.515 808.204 302.884 804.77 302.825C800.479 302.749 796.154 302.369 791.906 302.784C789.261 303.043 786.745 302.659 784.264 302.115C780.033 301.19 777.524 306.626 780.975 309.242C782.621 310.49 784.407 311.626 785.929 312.978C788.671 315.411 785.849 316.886 785.052 318.949C780.014 332.005 767.452 335.366 756.658 340.325C749.909 343.425 743.517 348.111 735.622 348.576C734.156 348.662 732.697 349.432 732.697 351.107C732.697 353.367 734.486 354.458 736.388 354.629C741.224 355.065 745.483 352.428 750.108 351.69C756.549 350.666 759.656 355.034 756.784 360.89C751.118 372.447 743.832 383.108 733.397 391.233C717.417 403.677 715.894 408.759 721.887 427.398C726.583 442.005 726.033 444.209 713.295 453.871C708.435 457.559 704.271 460.938 706.687 467.918C707.643 470.679 707.878 474.452 705.592 476.029C696.454 482.34 693.463 492.837 687.726 501.375C678.503 515.1 664.368 514.44 650.768 515.474C646.507 515.799 643.293 511.573 642.861 508.269C641.306 496.38 635.41 485.558 631.323 475.073C625.036 458.939 620.319 445.029 626.618 428.017C628.425 423.134 626.044 415.068 622.83 410.325C617.447 402.377 614.888 394.371 615.137 385.021C615.215 382.043 613.595 378.333 610.593 378.77C602.406 379.96 595.765 372.418 588.906 373.962C581.21 375.696 572.784 374.181 565.711 378.58C560.961 381.535 556.758 380.347 552.432 377.503C541.57 370.365 535.416 358.687 525.939 350.215C524.945 349.326 524.345 347.58 524.582 346.269C527.841 328.225 521.608 307.475 538.634 293.319C546.911 286.436 550.179 275.89 558.143 268.836C561.488 265.874 561.642 261.864 556.559 259.881C553.17 258.558 549.636 256.653 550.739 252.994C552.577 246.896 549.039 240.469 552.129 234.888C554.904 229.882 560.292 230.79 565.012 231.042C579.078 231.791 580.364 230.712 577.864 216.368C576.806 210.292 578.253 207.458 583.444 203.701C589.466 199.342 595.22 194.274 601.341 189.95C611.188 182.992 612.3 180.288 605.268 169.72C603.067 166.414 601.64 163.179 600.772 159.456C598.357 149.082 599.984 144.618 609.777 140.017C616.61 136.809 621.732 132.608 624.737 125.591C629.957 113.398 640.013 106.487 651.916 101.905C656.802 100.024 661.906 98.7126 666.825 96.9078C675.588 93.6918 683.073 92.2048 691.018 100.612C696.247 106.145 706.225 105.294 713.148 109.781C715.501 111.308 719.158 111.572 720.63 113.578C726.394 121.421 730.617 125.481 733.89 111.913C734.642 108.799 739.62 107.76 742.305 110.957C746.384 115.817 750.058 114.679 754.687 112.006C762.452 107.523 771.46 109.795 779.822 108.166C788.697 106.437 782.875 102.612 781.731 99.3126L781.89 99.1158C788.873 100.546 795.821 102.175 802.849 103.323C806.567 103.93 809.188 104.02 810.343 98.1979C812.85 85.5594 818.525 83.1759 832.402 84.4827C837.368 84.9499 842.168 84.0937 847.199 86.3159C850.104 87.599 855.314 87.0346 856.121 81.8738C857.245 74.6758 860.923 75.6032 866.345 77.1922C871.359 78.6602 878.201 81.1718 878.13 71.0519C878.111 68.4004 881.388 67.9166 883.691 67.4138C893.806 65.2082 903.241 60.5645 914.146 61.0507C924.159 61.4965 926.86 54.8488 921.479 45.3029C924.429 42.9644 926.127 39.7318 927.714 36.4186ZM606.836 233.52C596.28 235.384 589.117 241.752 584.818 250.928C582.716 255.413 580.885 259.435 576.239 261.643C574.691 262.378 571.55 261.956 571.93 263.977C572.226 265.552 575.395 265.222 577.093 264.629C585.603 261.662 594.072 258.885 603.193 258.093C608.176 257.659 612.649 258.375 616.991 260.362C621.26 262.317 620.712 266.353 620.947 270.186C621.132 273.165 623.464 275.648 626.445 275.802C635.998 276.293 645.1 284.392 655.22 277.334C656.781 276.245 660.174 276.471 662.077 277.403C672.602 282.571 683.86 278.985 694.677 280.472C699.976 281.2 701.859 276.013 702.874 272.166C704.114 267.461 700.296 267.366 696.632 267.112C693.458 266.892 690.166 264.235 687.283 264.729C677.35 266.427 672.977 262.302 672.348 252.768C672.223 250.843 671.053 249.007 668.66 249.337C667.05 249.56 667.19 251.326 666.58 252.498C663.063 259.267 653.958 260.429 649.604 254.67C648.283 252.925 648.167 248.293 646.248 249.256C636.361 254.217 631.987 245.037 625.399 241.849C621.073 239.755 618.384 238.987 617.95 245.267C617.719 248.608 615.851 252.828 612.082 251.718C606.668 250.124 611.473 246.37 611.705 243.536C612.063 239.288 615.137 233.634 606.836 233.52ZM644.564 181.491C651.155 181.834 650.61 181.488 653.287 177.269C659.575 167.358 657.082 157.561 653.799 147.69C652.877 144.913 653.245 139.783 648.155 141.597C644.28 142.98 641.854 147.49 644.365 150.903C652.853 162.449 641.685 168.022 637.117 175.004C634.262 179.37 628.522 183.798 623.675 175.552C622.966 174.345 621.331 173.368 620.184 174.506C619.361 175.322 619.033 177.179 619.263 178.429C620.777 186.62 627.23 184.875 632.746 184.889C637.001 184.901 639.698 179.418 644.564 181.491ZM722.983 239.124C720.972 231.286 709.854 231.964 708.21 222.971C707.835 220.919 705.032 226.12 703.037 227.629C699.878 230.017 696.689 230.731 694.732 226.803C693.131 223.59 691.409 221.659 688.625 224.593C685.442 227.947 681.674 231.409 682.285 236.824C682.674 240.265 685.321 242.229 688.229 241.596C697.355 239.608 705.808 240.884 714.424 244.275C718.033 245.694 721.987 243.991 722.983 239.124ZM713.987 313.525C711.002 314.171 710.885 316.341 710.729 318.715C710.269 325.635 715.244 329.66 718.904 334.372C720.564 336.509 722.269 340.33 725.013 339.161C728.974 337.472 726.479 333.583 725.729 330.646C724.309 325.068 720.196 320.989 717.315 316.227C716.656 315.131 715.228 314.5 713.987 313.525ZM0 191.181C11.9271 183.867 24.0035 176.873 37.3536 172.367C39.0565 171.793 41.4234 170.737 41.2384 168.679C41.0249 166.295 38.1481 167.332 36.6397 166.445C30.4948 162.83 24.1245 159.531 18.2997 155.454C11.1041 150.417 11.4385 146.248 18.8476 141.734C20.4461 140.76 22.3268 140.255 24.0676 139.505C26.0621 138.644 30.1224 139.237 29.3255 136.294C28.6259 133.709 25.1562 136.152 22.9244 136.026C21.0485 135.922 19.0326 136.028 17.3416 135.367C14.0805 134.091 11.2037 131.66 11.7871 127.95C12.5295 123.228 16.7226 122.863 20.6524 122.818C22.4027 122.797 24.9119 124.848 25.6898 122.657C26.4131 120.622 23.4154 120.297 21.9046 119.318C10.6179 111.989 10.6606 110.196 22.0303 103.596C24.9071 101.926 27.6013 99.8747 30.6205 98.5395C39.2035 94.7448 47.2695 92.4467 57.3988 96.0089C68.3773 99.87 80.7241 99.6447 92.3049 102.033C106.672 104.995 120.314 105.064 134.966 101.34C149.04 97.764 164.126 100.425 178.242 105.389C179.938 105.984 182.112 107.483 183.431 105.515C184.624 103.733 183.168 101.801 181.572 100.726C179.188 99.1253 177.009 97.7806 176.404 94.4602C175.718 90.6988 173.494 89.8592 170.593 92.9779C167.154 96.6754 163.016 96.6089 158.794 94.7709C154.473 92.8902 151.169 90.1296 154.16 84.9167C155.834 81.9972 157.668 79.3314 157.466 75.7289C157.182 70.6749 161.6 69.5625 164.119 71.18C172.223 76.3787 182.383 73.4971 190.615 79.8579C197.384 85.0898 206.73 86.6243 215.66 81.1813C220.813 78.0413 226.251 77.3463 225.125 86.6124C224.688 90.2102 225.896 94.1377 228.561 95.5488C235.88 99.4217 242.021 102.408 231.602 109.985C229.418 111.574 231.042 114.567 233.76 115.338C237 116.256 241.646 116.894 242.018 112.762C242.455 107.922 244.134 105.294 247.912 102.503C254.076 97.9489 253.039 95.1693 245.123 95.0863C238.691 95.0176 236.487 88.3532 231.647 85.6993C237.284 84.6843 239.499 77.9227 245.578 77.5052C248.886 77.2776 252.164 76.5613 255.449 76.0206C260.135 75.2498 263.344 72.9161 264.034 67.8834C264.385 65.3315 264.2 62.9788 261.186 62.3788C256.886 61.525 253.106 58.9683 249.226 65.1939C243.747 73.9809 232.892 66.6265 225.305 70.6512L223.339 65.4454C224.527 64.1836 224.66 62.9243 223.334 61.6649C224.309 56.6038 220.635 52.0407 223.09 46.3654C227.207 36.8455 228.241 35.8732 236.542 41.1335C239.018 42.7035 242.187 44.4728 241.219 47.5204C239.922 51.5949 236.471 48.1417 234.004 48.3078C230.943 48.5141 227.995 48.7892 227.961 52.6313C227.928 56.4117 230.72 57.0829 233.879 57.0639C237.206 57.0449 240.543 57.3722 243.859 57.1943C249.975 56.8671 253.549 54.7919 248.633 48.4572C246.493 45.6989 243.747 42.6537 247.274 39.8694C250.945 36.9689 253.492 41.1833 255.271 43.4269C257.047 45.6681 263.278 45.6657 259.59 51.8249C258.473 53.6914 264.385 54.965 267.404 55.7097C268.849 56.0655 270.269 55.1832 270.63 53.5728C271.36 50.3023 269.802 48.1228 267.008 46.6405C266.567 46.414 266.143 46.1556 265.739 45.8673C248.094 32.8991 248.305 28.8317 267.253 17.6802C270.53 15.7457 274.082 14.3192 277.788 13.4491C297.183 8.82441 317.06 7.48918 336.745 5.1863C344.972 4.22341 353.688 7.04092 362.126 8.47577C365.332 9.02125 370.937 10.3446 371.015 11.5945C371.245 15.2279 366.198 15.0951 363.943 17.4145C362.662 18.7332 360.274 19.6724 361.547 21.8875C363.001 24.4133 366.219 24.5343 367.609 22.6701C375.889 11.5779 387.436 14.3836 398.794 13.6768C408.037 13.1029 417.371 11.8862 426.87 8.61807C437.329 5.01789 449.804 3.97437 461.555 3.03282C463.91 2.84546 466.939 4.18307 468.585 3.1348C482.801 -5.90596 494.687 7.54846 507.959 6.90812C509.541 6.83222 510.76 8.16981 510.253 9.75645C509.873 10.9423 508.645 12.6451 507.679 12.7234C501.048 13.2665 494.384 13.4088 487.734 13.7669C486.363 13.8405 485.011 14.2911 483.65 14.5686C484.456 16.8952 486.524 16.1007 488.025 16.0983C502.229 16.0651 516.407 18.0715 530.656 16.3639C534.116 15.9489 539.132 15.4556 539.813 20.6614C540.349 24.7572 535.995 25.5327 533.163 27.0862C522.984 32.6738 511.633 37.5879 519.431 52.8376C520.406 54.7421 517.875 56.5018 517.918 57.9817C518.302 71.1326 506.807 81.4114 509.261 95.1219C509.951 98.9782 507.53 103.001 503.61 104.21C495.046 106.852 488.384 114.401 478.603 113.792C477.678 113.735 476.532 113.799 475.816 114.29C461.814 123.866 443.168 128.411 438.479 148.164C436.698 155.666 432.306 156.602 425.606 154.686C414.993 151.65 409.744 143.575 404.413 134.857C398.889 125.823 396.494 117.646 404.953 109.162C406.274 107.839 406.182 106.179 404.334 104.45C400.115 100.503 392.659 87.5729 391.539 83.2731C388.108 70.0819 374.973 59.3123 361.96 62.7891C347.581 66.6312 342.406 57.0592 335.184 49.4841C332.248 46.4057 334.821 44.2522 337.475 42.9265C341.272 41.0268 345.745 41.0386 349.423 38.4132C352.405 36.2858 352.606 34.4691 351.086 31.3385C349.483 28.0348 347.519 29.197 345.347 30.0674C332.423 35.2423 320.954 41.5818 316.711 56.6157C315.291 61.6555 311.311 65.7679 310.006 71.5405C308.885 76.5068 302.083 75.3755 297.496 76.1202C295.824 76.3929 292.928 74.811 292.781 77.1258C292.672 78.8428 296.146 78.0223 297.636 78.8784C307.943 84.7933 320.726 81.1932 331.015 88.6425C339.206 94.5741 348.859 97.6833 352.846 108.835C354.79 114.278 362.33 116.246 368.008 118.632C370.662 119.747 374.511 120.608 371.613 124.04C369.343 126.727 368.266 133.17 362.195 129.969C360.15 128.89 358.628 126.838 356.823 125.282C355.775 124.379 354.354 123.172 353.19 124.191C351.904 125.315 353.156 126.715 354.05 127.732C355.307 129.165 356.844 130.377 357.959 131.902C359.994 134.686 365.325 137.29 361.154 141.125C358.006 144.021 354.043 148.681 348.714 146.181C338.215 141.26 328.809 133.334 315.947 135.62C314.728 135.836 313.531 134.221 313.509 132.668C313.483 130.929 314.721 130.218 316.27 130.094C318.639 129.905 321.146 130.251 323.361 129.592C329.442 127.78 333.178 120.264 331.012 114.847C328.496 108.555 313.251 101.238 306.034 102.066C300.918 102.654 304.258 104.668 303.911 106.843C302.937 112.971 307.82 122.683 294.776 123.207C290.144 123.394 293.81 127.21 295.677 128.939C299.068 132.082 307.002 132.578 306.072 137.155C305.187 141.519 297.453 135.174 293.533 139.619C291.901 141.469 288.858 141.661 286.909 140.07C279.258 133.827 274.638 140.307 269.752 144.177C255.219 155.694 255.819 162.06 272.691 170.19C276.507 172.028 280.024 174.793 284.108 175.787C294.747 178.379 303.812 182.344 306.485 194.516C306.956 196.66 309.603 200.544 312.803 197.542C314.562 195.889 314.574 193.133 313.215 191.138C309.048 185.02 309.836 180.959 316.984 177.831C320.174 176.437 319.204 172.763 317.868 170.213C315.494 165.683 316.405 160.905 316.187 156.202C315.632 144.142 322.405 139.728 333.265 145.458C337.394 147.638 342.145 150.194 344.457 153.915C348.337 160.16 351.387 163.397 358.896 158.742C363.777 155.715 367.249 160.361 368.826 164.142C372.277 172.412 378.588 177.739 385.01 183.447C389.9 187.794 397.639 191.698 393.033 201.002C391.544 204.007 394.907 204.671 396.75 205.914C399.952 208.074 402.947 210.467 403.658 214.589C403.986 216.484 402.76 219.826 402.527 219.646C397.286 215.588 391.027 219.451 385.871 217.383C382.394 215.989 382.2 212.303 383.502 208.708C385.501 203.184 382.605 203.326 378.488 204.346C375.751 205.025 372.734 205.459 369.986 205.044C360.077 203.552 360.634 206.919 363.646 214.822C366.319 221.835 369.056 221.287 374.041 218.472C376.373 217.156 378.827 217.452 379.918 220.187C380.955 222.783 379.337 225.822 377.357 226.142C369.926 227.347 363.86 236.3 355.032 230.005C352.376 228.113 347.913 229.55 347.457 231.663C345.655 240.049 338.587 242.257 332.758 246.106C331.657 246.832 330.853 248.319 330.372 249.624C326.082 261.193 319.951 271.094 309.786 278.871C304.62 282.822 304.286 289.693 309.587 295.373C312.188 298.16 312.924 302.006 309.418 304.013C305.946 305.998 305.458 301.015 303.373 299.473C301.151 297.83 299.272 295.444 297.864 293.022C293.711 285.889 287.333 285.12 280.541 287.297C276.383 288.63 272.368 289.638 268.035 289.641C259.507 289.645 251.894 289.223 253.872 302.571C254.609 307.549 247.49 313.141 254.002 319.497C258.745 324.124 263.031 326.321 269.015 322.585C271.033 321.326 272.921 319.848 274.963 318.627C277.937 316.846 281.637 315.48 284.473 317.237C288.825 319.936 284.563 323.33 283.413 325.671C279.713 333.215 280.441 337.123 289.911 337.045C294.963 337.005 297.783 340.382 297.899 345.348C298.008 350.002 296.035 355.852 301.986 357.65C308.192 359.524 316.071 360.159 320.914 356.289C331.34 347.957 341.611 349.722 352.82 353.234C355.834 354.178 358.965 354.624 362.116 354.83C380.298 356.03 390.304 373.201 406.995 377.257C412.687 396.956 433.029 393.91 446.125 402.09C449.519 404.211 453.878 405.299 457.55 407.564C464.629 411.937 466.581 417.551 461.209 424.142C455.837 430.73 454.448 438.453 452.161 446.258C448.402 459.086 446.087 473.904 427.645 475.071C422.674 475.386 420.092 480.063 418.621 485.056C412.721 505.091 410.588 507.205 388.942 515.567C387.263 516.217 386.777 516.881 387.327 518.422C390.728 527.942 384.208 530.535 377.309 531.18C370.861 531.784 370.531 537.147 367.972 540.638C363.371 546.916 362.299 555.465 355.44 560.451C355.013 560.761 355.492 563.52 356.311 564.148C360.746 567.551 358.78 569.745 355.96 573.288C346.606 585.052 346.774 585.697 355.175 597.935C356.517 599.889 359.112 601.345 354.897 602.763C343.504 606.596 332.808 601.298 328.491 589.954C325.123 581.108 324.924 571.441 327.277 563.171C332.189 545.901 331.472 527.954 335.646 510.442C338.841 497.035 341.419 482.119 341.633 467.524C341.768 458.391 338.125 451.359 330.891 447.083C322.885 442.349 318.397 435.699 315.381 427.412C314.579 425.212 313.139 423.248 312.127 421.113C309.454 415.481 298.834 413.619 304.929 403.646C308.225 398.253 306.776 390.405 312.85 385.946C316.761 383.077 316.96 378.903 317.185 374.465C317.427 369.724 316.284 367.77 311.069 367.262C301.637 366.347 291.749 365.33 289.425 353.006C288.92 350.329 285.714 350.035 283.591 349.606C272.634 347.379 263.992 340.105 251.327 339.642C240.638 339.253 226.232 333.829 220.808 319.592C218.413 313.305 215.733 308.735 205.822 310.741C197.716 312.382 192.455 302.187 189.704 294.799C185.414 283.284 179.297 274.443 169.391 266.514C158.683 257.946 155.742 243.868 156.012 230.185C156.197 220.836 156.906 211.988 146.851 206.9C144.709 205.817 143.832 204.073 143.535 201.275C142.356 190.176 141.446 189.554 129.659 188.617C125.866 188.316 126.016 185.095 124.621 182.748C116.048 168.323 105.159 157.644 86.9663 155.677C80.3731 154.964 76.3247 158.365 71.062 159.382C65.4767 160.461 58.829 157.857 62.5003 168.238C63.5841 171.307 58.7768 175.953 54.8446 174.682C47.6561 172.355 44.2314 176.207 40.5459 180.774C39.6683 181.863 38.5489 183.54 37.4888 183.58C24.4636 184.076 13.6963 192.713 0.834823 193.655L0 191.181ZM270.77 84.7032C268.434 85.0969 266.1 85.557 264.48 87.4994C262.633 89.7145 263.328 92.0388 264.871 93.8934C269.871 99.8961 273.587 107.334 282.431 109.122C284.148 109.468 281.985 114.693 285.687 113.78C287.495 113.336 289.356 110.656 290.011 108.61C290.855 105.97 288.453 104.129 286.214 103.577C278.542 101.684 275.833 96.2508 275.01 89.1453C274.728 86.7191 273.988 84.4613 270.77 84.7032Z" fill="url(#paint0_linear_51_108)" fill-opacity="0.5"/>
<path d="M1067.77 437.689C1067.65 430.692 1067.91 424.702 1060.4 422.887C1059.48 422.667 1057.81 422.169 1057.83 421.955C1059.5 407.486 1046.75 409.819 1039.35 405.899C1037.71 405.031 1036.33 403.556 1035.05 402.168C1032.74 399.685 1030.06 396.635 1032.72 393.443C1035.84 389.701 1040.82 390.948 1042.48 394.314C1045.97 401.357 1050.3 399.265 1056.28 398.737C1069.54 397.563 1080.17 404.661 1087.39 415.12C1090.2 419.183 1098.08 423.734 1095.64 426.428C1091.75 430.721 1086.74 424.161 1082.32 421.931C1078.76 420.138 1075.66 421.03 1073.31 423.753C1070.69 426.793 1072.43 429.805 1073.92 432.967C1081.16 448.368 1091.81 461.446 1101.98 474.86C1111.44 487.344 1111.97 494.239 1104.38 507.842C1102.98 510.354 1101.54 512.851 1100.35 515.467C1091.19 535.572 1076 538.05 1060.43 523.298C1053.06 516.319 1044.18 510.852 1035.65 505.217C1030.33 501.702 1024.87 503.388 1019.5 506.377C1010.76 511.239 1001.61 514.692 991.385 515.704C980.208 516.81 980.077 517.443 978.505 506.132C977.153 496.406 971.338 487.918 972.685 477.198C973.759 468.639 976.982 464.389 984.896 462.141C991.438 460.284 997.568 459.093 1000.74 450.209C1002.49 445.283 1011.77 440.34 1019.48 440.703C1023.97 440.914 1026.49 440.219 1028.73 436.396C1032.26 430.398 1038.33 431.067 1044.07 431.499C1047.81 431.779 1050.94 433.486 1050.02 437.724C1047.95 447.28 1054.09 450.47 1061.12 450.085C1069.18 449.642 1067.01 441.834 1067.77 437.689ZM633.894 31.9077C629.3 33.0413 623.046 28.1367 620.128 35.1829C617.133 42.4189 625.467 44.3067 627.492 49.2563C628.621 52.0122 631.048 53.5656 633.289 55.3468C637.33 58.558 641.613 59.0513 644.225 54.4503C648.247 47.359 652.613 47.2357 658.488 51.8059C660.01 52.9893 662.138 52.7332 663.748 51.4027C664.95 50.409 665.61 48.5851 664.41 47.6887C651.762 38.2495 663.077 39.8503 668.51 38.3728C670.711 37.7728 672.715 36.2857 674.669 34.9908C675.77 34.2627 677.304 33.1338 677.354 32.1259C677.428 30.6127 675.542 30.3993 674.224 30.3115C667.602 29.8752 661.386 26.6426 653.884 27.7193C647.104 26.2963 640.75 30.2143 633.894 31.9077ZM213.484 57.014C211.267 54.5333 207.847 53.9451 206.483 57.2868C201.166 70.3119 194.691 60.4411 190.655 57.3508C179.89 49.114 175.255 48.6705 166.117 57.5168C162.157 61.3518 161.908 63.7567 167.837 64.9425C175.739 66.522 183.167 68.7941 190.315 73.0441C198.974 78.1929 216.401 73.4401 223.336 65.4453C224.524 64.1835 224.657 62.9242 223.331 61.6649C219.15 62.0111 216.183 60.0332 213.484 57.014ZM956.484 387.165C955.972 387.531 955.882 389.008 956.114 389.824C957.947 396.28 959.892 402.757 967.598 404.618C974.26 406.229 979.136 404.421 983.372 398.409C988.677 390.877 986.265 381.936 989.301 374.036C990.422 371.119 986.682 369.572 981.764 369.539C974.115 374.837 965.254 380.937 956.484 387.165ZM752.325 434.954C746.388 439.126 738.159 442.389 735.109 448.736C731.596 456.048 730.33 464.894 730.838 473.453C731.015 476.458 732.6 478.858 735.856 479.437C739.798 480.139 744.479 479.881 745.606 475.839C748.729 464.645 754.782 454.376 756.323 443.414C754.998 439.69 756.238 432.203 752.325 434.954ZM781.897 99.1394C772.081 88.2393 772.092 85.9411 783.227 76.6988C789.797 71.2464 796.964 66.7094 805.507 64.6934C809.154 63.8325 812.717 62.4427 816.137 60.8917C817.047 60.479 817.785 58.5603 817.726 57.3792C817.609 55.1428 815.752 53.9831 813.732 54.4787C795.335 58.9778 776.926 63.5005 765.008 80.2895C760.244 87.0013 761.883 94.2989 769.173 97.9299C773.169 99.9197 777.502 99.2841 781.738 99.3339L781.897 99.1394ZM1169.3 558.897C1172.73 550.618 1178.98 545.428 1185.93 540.268C1194.36 534.004 1193.76 529.479 1185.06 522.585C1183.22 521.128 1181.38 518.74 1179 519.826C1176.13 521.138 1177.95 523.887 1178.33 526.071C1179.43 532.384 1178.58 536.701 1171.65 540.365C1165.76 543.479 1161.57 550.108 1157.15 555.598C1153.67 559.924 1155.55 564.501 1160.97 564.814C1164.68 564.864 1167.88 562.324 1169.3 558.897ZM1067.67 244.477C1065.76 243.376 1063.75 243.763 1062.75 245.563C1056.69 256.487 1046.57 261.823 1035.56 266.32C1031.05 268.158 1027.91 271.948 1028.15 277.407C1028.24 279.518 1029.41 281.38 1031.62 280.398C1041.69 275.925 1052.08 271.905 1061.46 266.244C1067.11 262.838 1069.02 255.666 1070.33 250.103C1070.48 246.953 1069.4 245.471 1067.67 244.477ZM914.159 24.2188C907.334 19.7624 903.124 24.0053 900.572 29.2822C897.916 34.7702 899.854 39.6132 906.29 41.4583C911.314 42.8979 916.417 44.0505 921.486 45.3312C924.429 42.9667 926.127 39.7341 927.714 36.4209C924.581 30.812 919.318 27.5841 914.159 24.2188ZM1054.1 64.5867C1051.29 69.5174 1057.29 70.2692 1059.41 72.878C1060.31 73.9737 1061.31 74.9936 1062.07 76.1723C1064.21 79.4808 1066.78 82.9481 1071.04 81.5536C1076.31 79.8294 1069.79 75.9161 1071.85 73.2362C1072.98 71.761 1073.94 70.1388 1075.14 68.7276C1077.98 65.386 1076.1 63.5574 1072.98 62.6965C1070.29 61.9566 1067.39 61.9471 1065.52 61.7265C1060.87 62.125 1056.16 60.9699 1054.1 64.5867ZM1000.55 353.554C1005.16 357.539 1009.35 354.37 1011.68 351.553C1014.21 348.505 1011.42 344.966 1007.73 344.234C1001.05 342.908 1000.64 339.64 1002.96 334.045C1003.95 331.671 1001.14 329.634 998.885 329.024C995.877 328.208 994.801 330.924 994.051 333.113C993.449 334.873 993.517 336.865 993.287 338.753C992.82 345.128 995.991 349.617 1000.55 353.554ZM989.317 399.533C989.666 403.765 990.268 409.822 994.865 410.875C997.345 411.444 1003.69 409.205 1003.27 403.627C1002.97 399.543 1002.01 395.025 996.29 394.425C992.884 394.591 989.007 395.751 989.317 399.533Z" fill="url(#paint1_linear_51_108)" fill-opacity="0.44"/>
<defs>
<linearGradient id="paint0_linear_51_108" x1="609.454" y1="0" x2="609.454" y2="604" gradientUnits="userSpaceOnUse">
<stop stop-color="#00A45A"/>
<stop offset="0.47" stop-color="#0C8A76"/>
<stop offset="1" stop-color="#097C87"/>
</linearGradient>
<linearGradient id="paint1_linear_51_108" x1="677.59" y1="22.3492" x2="677.59" y2="564.815" gradientUnits="userSpaceOnUse">
<stop stop-color="#0C8A76"/>
<stop offset="0.035" stop-color="#0C8A76"/>
<stop offset="1" stop-color="#097C87"/>
</linearGradient>
</defs>
</svg>
